# xmcd
#
# Track frame offsets:
#	150
#	11069
#	26817
#	36763
#	55623
#	77467
#	84109
#
# Disc length: 1409 seconds
#
# Revision: 1
# Processed by: cddbd v1.5.1PL0 Copyright (c) Steve Scherf et al.
# Submitted via: CDex 1.50Beta5
#
DISCID=41057f07
DTITLE=アリスソフト - 大番長通販特典ソフトＣＤ
DYEAR=2003
DGENRE=Games
TTITLE0=Dash! to truth
TTITLE1=チョイスドラマ／天楼久那妓
TTITLE2=チョイスドラマ／京堂扇奈
TTITLE3=チョイスドラマ／日比生咲苗
TTITLE4=チョイスドラマ／シオン
TTITLE5=チョイスドラマ／高羽沙枝
TTITLE6=チョイスドラマ／姫乃宮華苑
EXTD=
EXTT0=
EXTT1=
EXTT2=
EXTT3=
EXTT4=
EXTT5=
EXTT6=
PLAYORDER=
